HIERARCHY
ROOT Hips
{
	OFFSET 0.000000 0.000000 0.000000
	CHANNELS 6 Xposition Yposition Zposition Zrotation Yrotation Xrotation 
	JOINT LeftUpLeg_virtual
	{
		OFFSET 0.000000 0.000000 0.000000
		CHANNELS 3 Zrotation Yrotation Xrotation
		JOINT LeftUpLeg
		{
			OFFSET 10.205400 -3.823500 0.155100
			CHANNELS 3 Zrotation Yrotation Xrotation
			JOINT LeftLeg
			{
				OFFSET 0.708757 -12.982077 0.567790
				CHANNELS 3 Zrotation Yrotation Xrotation
				JOINT LeftFoot
				{
					OFFSET -0.708756 -10.717838 -2.184338
					CHANNELS 3 Zrotation Yrotation Xrotation
					JOINT LeftToeBase
					{
						OFFSET 0.108149 -7.191104 7.560241
						CHANNELS 3 Zrotation Yrotation Xrotation
						End Site
						{
							OFFSET 0.000000 0.000000 0.000000
						}
					}
				}
			}
		}
	}
	JOINT RightUpLeg_virtual
	{
		OFFSET 0.000000 0.000000 0.000000
		CHANNELS 3 Zrotation Yrotation Xrotation
		JOINT RightUpLeg
		{
			OFFSET -10.205400 -3.823500 0.005500
			CHANNELS 3 Zrotation Yrotation Xrotation
			JOINT RightLeg
			{
				OFFSET -0.708756 -12.982134 0.610632
				CHANNELS 3 Zrotation Yrotation Xrotation
				JOINT RightFoot
				{
					OFFSET 0.708754 -10.717769 -1.945823
					CHANNELS 3 Zrotation Yrotation Xrotation
					JOINT RightToeBase
					{
						OFFSET -0.108140 -7.191069 7.372968
						CHANNELS 3 Zrotation Yrotation Xrotation
						End Site
						{
							OFFSET 0.000000 0.000000 0.000000
						}
					}
				}
			}
		}
	}
	JOINT Spine_virtual
	{
		OFFSET 0.000000 0.000000 0.000000
		CHANNELS 3 Zrotation Yrotation Xrotation
		JOINT Spine
		{
			OFFSET 0.000000 6.876099 0.125700
			CHANNELS 3 Zrotation Yrotation Xrotation
			JOINT Spine1
			{
				OFFSET 0.000000 8.022060 0.146608
				CHANNELS 3 Zrotation Yrotation Xrotation
				JOINT Spine2
				{
					OFFSET 0.000000 9.168068 0.167552
					CHANNELS 3 Zrotation Yrotation Xrotation
					JOINT Neck_virtual
					{
						OFFSET 0.000000 0.000000 0.000000
						CHANNELS 3 Zrotation Yrotation Xrotation
						JOINT Neck
						{
							OFFSET 0.000000 10.314075 0.188496
							CHANNELS 3 Zrotation Yrotation Xrotation
							JOINT Head
							{
								OFFSET 0.000000 7.643700 -2.377400
								CHANNELS 3 Zrotation Yrotation Xrotation
								End Site
								{
									OFFSET 0.000000 0.000000 0.000000
								}
							}
						}
					}
					JOINT LeftShoulder_virtual
					{
						OFFSET 0.000000 0.000000 0.000000
						CHANNELS 3 Zrotation Yrotation Xrotation
						JOINT LeftShoulder
						{
							OFFSET 4.392200 8.824978 0.174984
							CHANNELS 3 Zrotation Yrotation Xrotation
							JOINT LeftArm
							{
								OFFSET 8.771219 -2.981674 -0.026999
								CHANNELS 3 Zrotation Yrotation Xrotation
								JOINT LeftForeArm
								{
									OFFSET 8.512804 0.000000 -0.000000
									CHANNELS 3 Zrotation Yrotation Xrotation
									JOINT LeftHand
									{
										OFFSET 18.484802 0.000000 -0.000000
										CHANNELS 3 Zrotation Yrotation Xrotation
										End Site
										{
											OFFSET 0.000000 0.000000 0.000000
										}
									}
								}
							}
						}
					}
					JOINT RightShoulder_virtual
					{
						OFFSET 0.000000 0.000000 0.000000
						CHANNELS 3 Zrotation Yrotation Xrotation
						JOINT RightShoulder
						{
							OFFSET -4.392200 8.824993 0.141379
							CHANNELS 3 Zrotation Yrotation Xrotation
							JOINT RightArm
							{
								OFFSET -8.771282 -2.981682 -0.094208
								CHANNELS 3 Zrotation Yrotation Xrotation
								JOINT RightForeArm
								{
									OFFSET -8.494598 0.000000 0.000000
									CHANNELS 3 Zrotation Yrotation Xrotation
									JOINT RightHand
									{
										OFFSET -18.483803 0.000000 0.000001
										CHANNELS 3 Zrotation Yrotation Xrotation
										End Site
										{
											OFFSET 0.000000 0.000000 0.000000
										}
									}
								}
							}
						}
					}
				}
			}
		}
	}
}
MOTION
Frames: 5
Frame Time: 0.033333
1.756918 3.453771 18.647306 -179.620301 6.168157 179.956019 16.239681 -0.123261 -66.316595 -12.646338 16.853529 -45.175045 14.482561 2.533665 23.396767 -13.763921 -5.020399 20.565985 0.000000 0.000000 0.000000 5.482939 10.960995 -65.909167 14.021734 -2.432700 -48.990532 -4.289211 -2.398781 34.675641 -0.423022 20.783011 20.023601 0.000000 0.000000 0.000000 5.489720 7.284564 -61.947453 -5.074202 0.982570 -5.614623 -2.078555 -3.309313 1.515265 -0.032300 -0.135123 -0.025941 -2.586423 -2.941578 6.414436 9.577169 -13.183538 38.160441 0.000000 0.000000 0.000000 0.300703 -1.989512 -0.040976 -7.324455 5.271994 0.037164 -11.419749 -18.495860 -52.338818 -162.466076 -72.737697 167.725349 0.000000 0.000000 0.000000 -5.012398 -1.019489 -0.965269 25.476462 13.611434 3.420548 21.557353 -5.428649 -55.385492 -177.568075 55.339180 171.719330 0.000000 0.000000 0.000000 
1.919817 3.466003 18.693064 -179.653018 6.193490 179.968354 16.909158 -0.604591 -65.951173 -11.909646 16.948880 -45.418333 14.635275 2.247166 23.796420 -13.624607 -5.542684 19.973252 0.000000 0.000000 0.000000 6.003459 10.254860 -65.855946 11.759629 -1.822192 -48.819665 -3.924909 -1.468321 35.285280 0.740214 20.075396 20.505485 0.000000 0.000000 0.000000 6.153127 6.463616 -61.452728 -4.627035 0.848739 -6.110484 -2.043146 -2.600440 1.767294 0.005055 0.028491 -0.020930 -2.540910 -2.421231 6.737110 8.341018 -12.742358 38.644534 0.000000 0.000000 0.000000 0.368094 -1.408921 0.200869 -8.983995 4.164362 0.089408 -13.574227 -18.865905 -49.472286 -160.882975 -73.738743 165.157061 0.000000 0.000000 0.000000 -4.985405 -0.506716 -0.909031 27.475254 10.311805 0.930553 21.898365 -2.506413 -49.284285 -178.561608 55.691600 169.189687 0.000000 0.000000 0.000000 
2.050141 3.484086 18.785450 -179.700529 6.389055 179.843512 17.640379 -1.131849 -65.930723 -11.072737 17.464731 -45.260149 15.637354 2.677724 24.218912 -11.011235 -4.583510 19.047451 0.000000 0.000000 0.000000 6.729560 9.557614 -65.780855 9.970735 -1.245972 -48.660754 -3.570027 -0.431156 35.692263 2.123079 19.401130 21.480706 0.000000 0.000000 0.000000 6.546521 5.740424 -61.302942 -4.291843 0.666268 -6.271283 -1.943556 -2.193359 2.351244 -0.024675 -0.021896 -0.019124 -2.409180 -1.841390 7.268692 6.826673 -12.105674 38.826272 0.000000 0.000000 0.000000 0.599400 -0.883817 0.726818 -10.705262 2.054545 0.302925 -15.393098 -19.688632 -45.572631 -158.028352 -75.512727 161.392261 0.000000 0.000000 0.000000 -4.772011 0.043368 -0.519461 28.818914 7.277691 -1.330132 22.920050 -1.854854 -42.692794 -179.315620 56.875327 167.251061 0.000000 0.000000 0.000000 
2.150534 3.500643 18.869816 -179.889001 6.851970 -179.896760 18.167439 -1.405176 -66.248006 -10.273340 17.554267 -45.151666 16.479085 2.429802 24.639890 -8.997582 -3.894993 17.742868 0.000000 0.000000 0.000000 7.329916 9.082074 -66.046802 8.593750 -0.405612 -48.372158 -3.190121 0.439556 35.683763 3.855280 18.701212 22.679160 0.000000 0.000000 0.000000 6.686503 5.266497 -61.568671 -3.997270 0.207375 -6.245838 -1.744826 -1.855582 3.212144 -0.009737 0.036214 0.005677 -2.189066 -1.591856 8.251809 5.400369 -11.423006 38.700514 0.000000 0.000000 0.000000 0.788222 -0.637684 1.703084 -12.364037 -1.117698 0.525374 -17.078436 -20.644762 -40.569042 -151.820366 -78.235377 154.332168 0.000000 0.000000 0.000000 -4.588909 0.344404 0.437046 29.431862 4.508327 -3.489178 23.952831 -3.076250 -35.558737 179.726292 59.378127 165.560999 0.000000 0.000000 0.000000 
2.273358 3.522754 18.828384 -179.846216 7.402406 179.987465 18.486394 -1.292823 -66.095761 -10.764895 18.452372 -45.371075 17.600197 1.567832 24.718777 -7.142117 -3.189951 17.893081 0.000000 0.000000 0.000000 8.098364 9.024882 -65.453997 7.856472 0.448868 -48.496040 -3.013012 1.297071 35.289135 5.544222 18.124696 24.117620 0.000000 0.000000 0.000000 6.589577 5.278566 -61.322798 -3.852507 -0.567140 -5.928264 -1.621504 -1.821316 4.456831 -0.007741 -0.050960 0.010273 -2.069171 -1.404618 9.438363 3.954732 -10.689831 38.426521 0.000000 0.000000 0.000000 0.879243 -0.483115 2.836370 -13.795300 -4.720114 1.040649 -18.660644 -21.253744 -34.796020 -139.415048 -81.337731 141.197359 0.000000 0.000000 0.000000 -4.438946 0.594959 1.778793 29.223644 2.308881 -5.275196 24.396695 -5.404562 -28.155860 178.440113 63.195369 164.061308 0.000000 0.000000 0.000000 
